<svg width="23" height="23" viewBox="0 0 23 23" fill="none" xmlns="http://www.w3.org/2000/svg">
<rect width="22.5" height="22.5" rx="11.25" fill="#EF8E19"/>
<path fill-rule="evenodd" clip-rule="evenodd" d="M16.9683 9.35212C17.228 7.61344 15.9042 6.67877 14.0941 6.05525L14.6812 3.69999L13.2472 3.3427L12.6755 5.63589C12.299 5.54197 11.9119 5.45337 11.5273 5.36557L12.103 3.05727L10.6702 2.69998L10.0826 5.05443C9.77063 4.98338 9.46438 4.91314 9.16712 4.83923L9.16875 4.83188L7.1916 4.33821L6.81022 5.86946C6.81022 5.86946 7.87393 6.11323 7.85147 6.12834C8.43212 6.2733 8.53747 6.65754 8.5195 6.96215L7.85065 9.6453C7.89067 9.65551 7.94253 9.67021 7.99969 9.69308L7.84861 9.65551L6.91067 13.4142C6.83962 13.5906 6.65955 13.8552 6.25366 13.7548C6.26796 13.7756 5.2116 13.4947 5.2116 13.4947L4.49988 15.1361L6.36596 15.6012C6.57662 15.654 6.78472 15.7083 6.99054 15.762L6.9906 15.762C7.12387 15.7968 7.25618 15.8313 7.3876 15.865L6.7943 18.2476L8.22632 18.6049L8.81432 16.248C9.20509 16.3542 9.58484 16.4522 9.95642 16.5445L9.37087 18.8904L10.8045 19.2476L11.3978 16.8699C13.8425 17.3326 15.6812 17.146 16.4542 14.9352C17.0777 13.1549 16.4236 12.128 15.1373 11.4579C16.0741 11.2411 16.7797 10.6249 16.9679 9.35212H16.9683ZM13.6924 13.9455C13.2854 15.5795 10.7272 14.9034 9.5578 14.5943L9.55773 14.5943C9.45303 14.5667 9.35947 14.5419 9.27958 14.5221L10.0668 11.3661C10.1645 11.3904 10.2838 11.4172 10.419 11.4475C11.6288 11.719 14.1082 12.2754 13.6928 13.9455H13.6924ZM10.6619 9.98302C11.6377 10.2433 13.7646 10.8108 14.1352 9.32642C14.514 7.80786 12.4457 7.35017 11.4356 7.12663C11.3221 7.10151 11.2219 7.07934 11.14 7.05895L10.4263 9.92136C10.4938 9.93819 10.5731 9.95933 10.6619 9.98302Z" fill="white"/>
</svg>
