<svg width="34" height="33" viewBox="0 0 34 33" fill="none" xmlns="http://www.w3.org/2000/svg">
<path fill-rule="evenodd" clip-rule="evenodd" d="M7.88205 30.5465C3.17559 27.6396 0.0395508 22.4359 0.0395508 16.5C0.0395508 7.38731 7.43071 0 16.5481 0C25.6656 0 33.0567 7.38731 33.0567 16.5C33.0567 25.6127 25.6656 33 16.5481 33C16.1106 33 15.677 32.983 15.248 32.9496L16.872 28.4902C17.4325 26.951 19.0145 26.0791 19.8207 24.7092C20.5397 23.4854 22.7327 19.8092 22.7548 19.772C23.2055 19.126 23.9287 18.0216 24.3745 17.3008L26.8096 13.3466C27.2551 12.6237 27.2888 11.7166 26.8847 11.3251C26.3479 10.8079 25.5233 11.3667 25.1612 11.8261C23.8531 13.6492 22.4949 15.2578 21.053 16.9353C20.8344 17.1908 20.2711 17.5881 20.3644 16.8278C20.3727 16.7896 20.8012 14.9896 19.6647 14.51L19.615 14.4911C19.0008 14.2677 18.5116 14.6516 17.9686 15.2972C17.7516 15.5548 17.369 15.2742 17.4342 14.9847C17.6279 14.1186 17.2707 13.3086 16.5847 13.0591L16.5319 13.0415C15.6212 12.7494 14.9878 14.0618 14.3328 13.8235C14.0107 13.7063 14.0462 12.8369 14.0158 12.5793C13.7582 10.3127 13.9685 8.09168 14.1032 5.81891C14.1218 5.16229 13.7199 4.30844 12.953 4.40524C12.2996 4.48923 11.7385 5.22944 11.6748 6.09088L11.2418 10.6071C11.1555 11.7736 11.7859 15.213 10.681 15.9746C9.62755 16.7156 8.42319 17.5956 8.37785 18.9826C8.29791 21.1631 10.3095 23.8807 9.61005 25.8013C9.60626 25.8117 8.46433 28.9475 7.88205 30.5465Z" fill="#B8AFEB"/>
</svg>
